<?xml version="1.0" encoding="utf-8"?>
<!-- Generator: Adobe Illustrator 27.5.0, SVG Export Plug-In . SVG Version: 6.00 Build 0)  -->
<svg version="1.1" id="Layer_1" xmlns="http://www.w3.org/2000/svg" xmlns:xlink="http://www.w3.org/1999/xlink" x="0px" y="0px"
	 viewBox="0 0 24 24" style="enable-background:new 0 0 24 24;" xml:space="preserve">
<style type="text/css">
	.st0{clip-path:url(#SVGID_00000093899176447842728110000016034581694085961626_);}
	.st1{fill:#FBFEE1;}
</style>
<g>
	<defs>
		<rect id="SVGID_1_" width="24" height="24"/>
	</defs>
	<clipPath id="SVGID_00000021841137019154964980000011715115679643678137_">
		<use xlink:href="#SVGID_1_"  style="overflow:visible;"/>
	</clipPath>
	<g style="clip-path:url(#SVGID_00000021841137019154964980000011715115679643678137_);">
		<path class="st1" d="M5,11.4c0-0.6,0.5-1,1-1c0,0,0,0,0,0l1.7,0c0.6,0,1,0.5,1,1v6.4c0.2-0.1,0.4-0.1,0.7-0.2
			c0.4-0.1,0.7-0.4,0.7-0.8V8.9c0-0.6,0.5-1,1-1c0,0,0,0,0,0h1.7c0.6,0,1,0.5,1,1l0,0v7.4c0,0,0.4-0.2,0.8-0.3
			c0.3-0.1,0.5-0.4,0.5-0.8V6.3c0-0.6,0.5-1,1-1h1.7c0.6,0,1,0.5,1,1v7.2c1.6-1.1,3-2.4,4.1-3.9c0.3-0.5,0.4-1.1,0.3-1.6
			c-2.2-6.3-9-9.6-15.3-7.4s-9.6,9-7.4,15.3c0.2,0.7,0.6,1.4,0.9,2c0.3,0.5,0.9,0.8,1.4,0.8c0.3,0,0.7-0.1,1.2-0.1
			c0.4,0,0.8-0.4,0.8-0.8L5,11.4"/>
		<path class="st1" d="M4.9,21.7c5.4,3.9,12.9,2.7,16.8-2.6C23.2,17,24,14.5,24,12c0-0.3,0-0.6,0-0.8C19.6,17.7,11.5,20.8,4.9,21.7"
			/>
	</g>
</g>
</svg>
